<svg width="38" height="44" viewBox="0 0 38 44" fill="none" xmlns="http://www.w3.org/2000/svg">
<g clip-path="url(#clip0_213_468)">
<path d="M37.8328 7.8507V0.17041V7.8507ZM37.8328 7.8507L33.9143 17.9976V9.38662L37.7993 0.249132L37.8328 7.8507Z" stroke="#0E1011" stroke-width="1.5" stroke-linecap="round" stroke-linejoin="round"/>
<path d="M37.8328 15.5305L33.9143 26.6081V17.9971L37.8328 7.85059V15.5305Z" stroke="#0E1011" stroke-width="1.5" stroke-linecap="round" stroke-linejoin="round"/>
<path d="M37.8328 23.2108L33.9143 35.2187V26.6081L37.8328 15.5305V23.2108Z" stroke="#0E1011" stroke-width="1.5" stroke-linecap="round" stroke-linejoin="round"/>
<path d="M37.8328 30.8912L33.9143 43.8295V35.2189L37.8328 23.2109V30.8912Z" stroke="#0E1011" stroke-width="1.5" stroke-linecap="round" stroke-linejoin="round"/>
<path d="M30.2986 0.221924L25.4777 9.43472H17.0409L22.7659 0.221924H30.2986Z" stroke="#0E1011" stroke-width="1.5" stroke-linecap="round" stroke-linejoin="round"/>
<path d="M37.8315 0.221924L33.9144 9.43472H25.4776L30.2986 0.221924H37.8315Z" stroke="#0E1011" stroke-width="1.5" stroke-linecap="round" stroke-linejoin="round"/>
<path d="M22.7659 0.221924L17.0408 9.43472H8.60404L15.2329 0.221924H22.7659Z" stroke="#0E1011" stroke-width="1.5" stroke-linecap="round" stroke-linejoin="round"/>
<path d="M8.60406 9.43472H0.16728L7.69993 0.221924H15.2329L8.60406 9.43472Z" stroke="#0E1011" stroke-width="1.5" stroke-linecap="round" stroke-linejoin="round"/>
<path d="M37.8315 0.221924L33.9144 9.43472L37.8315 0.221924Z" stroke="#0E1011" stroke-width="1.5" stroke-linecap="round" stroke-linejoin="round"/>
<path d="M0.167199 9.43457H33.9143V43.8294L0.167199 9.43457Z" stroke="#0E1011" stroke-width="1.5" stroke-linecap="round" stroke-linejoin="round"/>
<path d="M33.9143 35.2189L8.60395 9.43481" stroke="#0E1011" stroke-width="1.5" stroke-linecap="round" stroke-linejoin="round"/>
<path d="M33.9143 26.6082L17.0408 9.43481" stroke="#0E1011" stroke-width="1.5" stroke-linecap="round" stroke-linejoin="round"/>
<path d="M33.9143 17.9975L25.4775 9.43481" stroke="#0E1011" stroke-width="1.5" stroke-linecap="round" stroke-linejoin="round"/>
</g>
<defs>
<clipPath id="clip0_213_468">
<rect width="38" height="44" fill="white" transform="matrix(-1 0 0 1 38 0)"/>
</clipPath>
</defs>
</svg>
