<svg width="55" height="47" viewBox="0 0 55 47" fill="none" xmlns="http://www.w3.org/2000/svg">
<g clip-path="url(#clip0_752_14270)">
<path d="M45.1867 46.7932L54.7871 46.7932L45.1867 46.7932ZM45.1867 46.7932L32.5031 41.9467L43.2668 41.9467L54.6887 46.7519L45.1867 46.7932Z" stroke="#495057" stroke-width="1.5" stroke-linecap="round" stroke-linejoin="round"/>
<path d="M35.5866 46.7932L21.7396 41.9467L32.5033 41.9467L45.1865 46.7932L35.5866 46.7932Z" stroke="#495057" stroke-width="1.5" stroke-linecap="round" stroke-linejoin="round"/>
<path d="M25.9866 46.7932L10.9766 41.9467L21.7399 41.9467L35.5869 46.7932L25.9866 46.7932Z" stroke="#495057" stroke-width="1.5" stroke-linecap="round" stroke-linejoin="round"/>
<path d="M16.386 46.7932L0.21313 41.9467L10.9764 41.9467L25.9863 46.7932L16.386 46.7932Z" stroke="#495057" stroke-width="1.5" stroke-linecap="round" stroke-linejoin="round"/>
<path d="M54.7227 37.4744L43.2067 31.5116L43.2067 21.0767L54.7227 28.1577L54.7227 37.4744Z" stroke="#495057" stroke-width="1.5" stroke-linecap="round" stroke-linejoin="round"/>
<path d="M54.7227 46.7915L43.2067 41.9466L43.2067 31.5117L54.7227 37.4744L54.7227 46.7915Z" stroke="#495057" stroke-width="1.5" stroke-linecap="round" stroke-linejoin="round"/>
<path d="M54.7227 28.1577L43.2067 21.0767L43.2067 10.6418L54.7227 18.8406L54.7227 28.1577Z" stroke="#495057" stroke-width="1.5" stroke-linecap="round" stroke-linejoin="round"/>
<path d="M43.2067 10.6417L43.2067 0.206772L54.7227 9.52347L54.7227 18.8406L43.2067 10.6417Z" stroke="#495057" stroke-width="1.5" stroke-linecap="round" stroke-linejoin="round"/>
<path d="M54.7227 46.7915L43.2067 41.9466L54.7227 46.7915Z" stroke="#495057" stroke-width="1.5" stroke-linecap="round" stroke-linejoin="round"/>
<path d="M43.207 0.20693L43.207 41.9468L0.213501 41.9468L43.207 0.20693Z" stroke="#495057" stroke-width="1.5" stroke-linecap="round" stroke-linejoin="round"/>
<path d="M10.9759 41.9465L43.2061 10.6416" stroke="#495057" stroke-width="1.5" stroke-linecap="round" stroke-linejoin="round"/>
<path d="M21.7394 41.9465L43.2061 21.0766" stroke="#495057" stroke-width="1.5" stroke-linecap="round" stroke-linejoin="round"/>
<path d="M32.5027 41.9465L43.2061 31.5116" stroke="#495057" stroke-width="1.5" stroke-linecap="round" stroke-linejoin="round"/>
</g>
<defs>
<clipPath id="clip0_752_14270">
<rect width="47" height="55" fill="white" transform="matrix(1.19249e-08 -1 -1 -1.19249e-08 55 47)"/>
</clipPath>
</defs>
</svg>
