<svg width="96" height="20" viewBox="0 0 96 20" fill="none" xmlns="http://www.w3.org/2000/svg">
<g clip-path="url(#clip0_765_14732)">
<path d="M8.81715 4.50178C8.76172 4.42869 8.69865 4.39014 8.62835 4.39014C8.57661 4.39219 8.5265 4.40875 8.48373 4.43793C7.95106 4.8564 7.22235 6.62788 6.625 8.96282L7.15366 8.96884C8.19811 8.98049 9.27631 8.99294 10.3425 9.009C10.0613 7.93953 9.79573 7.02306 9.55229 6.2829C9.19637 5.20178 8.95615 4.71745 8.81715 4.50178Z" fill="#131416"/>
<path d="M10.0037 0C4.47928 0 0.000976562 4.47711 0.000976562 10C0.000976562 15.5229 4.47928 20 10.0037 20C15.528 20 20.0063 15.5229 20.0063 10C20.0063 4.47711 15.5276 0 10.0037 0ZM17.1943 10.1815L17.1919 10.1835C17.1811 10.1924 17.1702 10.2004 17.1586 10.2084L17.1473 10.2161L17.124 10.2301L17.1023 10.2426C17.0264 10.2824 16.9419 10.3032 16.8561 10.3032H12.1183C12.156 10.4602 12.1986 10.6386 12.2424 10.8325C12.5019 11.9542 13.1921 14.9337 13.9248 14.9337H13.9405H13.9485H13.9625C14.535 14.9337 14.827 14.1064 15.4674 12.2936L15.475 12.2715C15.5778 11.9803 15.6939 11.6518 15.8197 11.3044L15.8518 11.2157C15.8708 11.1656 15.9067 11.1237 15.9534 11.0973C16 11.0709 16.0544 11.0617 16.1072 11.0712C16.1599 11.0808 16.2076 11.1085 16.2421 11.1495C16.2765 11.1906 16.2955 11.2424 16.2957 11.296C16.2956 11.3183 16.2924 11.3405 16.2861 11.3618L16.2595 11.451C16.1929 11.6667 16.1218 11.9606 16.0398 12.3008C15.6582 13.8819 15.0817 16.2707 13.6026 16.2707H13.5918C12.6361 16.2631 12.0652 14.7357 11.8198 14.0835C11.3631 12.8639 11.0164 11.5643 10.6842 10.3056H6.32154L5.41608 13.2008L5.40282 13.1904C5.34953 13.2744 5.27041 13.339 5.17732 13.3743C5.08423 13.4096 4.9822 13.4138 4.88652 13.3863C4.79085 13.3587 4.70669 13.3009 4.64666 13.2215C4.58664 13.1421 4.55398 13.0453 4.5536 12.9458V12.9301L4.60823 12.6024C4.73317 11.8578 4.88301 11.0851 5.05414 10.304H3.21469L3.20786 10.2972C3.04365 10.2719 2.89388 10.1888 2.78553 10.0629C2.67719 9.937 2.6174 9.77654 2.61694 9.61044C2.61604 9.44812 2.67243 9.29067 2.77617 9.1658C2.87992 9.04093 3.02438 8.95662 3.18416 8.92771C3.25567 8.92014 3.32758 8.91705 3.39948 8.91847C3.42599 8.91847 3.45572 8.91847 3.48906 8.91847C4.07275 8.92851 4.6942 8.93775 5.37149 8.94659C6.33279 5.04137 7.44634 3.05904 8.68161 3.05341C10.0073 3.05341 10.9903 6.07028 11.7772 9.02169L11.7804 9.03333C13.3973 9.06586 15.1207 9.11365 16.7962 9.23414L16.8665 9.24056C16.8935 9.24107 16.9203 9.24348 16.9469 9.24779H16.9565L16.965 9.2498H16.9694C17.0678 9.26975 17.1585 9.31724 17.2309 9.38674C17.3034 9.45624 17.3546 9.54489 17.3786 9.64235C17.4025 9.73982 17.3983 9.84209 17.3664 9.93727C17.3345 10.0324 17.2762 10.1166 17.1984 10.1799L17.1943 10.1815Z" fill="#131416"/>
<path d="M25.5558 12.5022L24.7628 14.4613H22.459L26.8425 4.23193H28.8772L33.2454 14.4617H30.9556L30.1627 12.5026H25.5558V12.5022ZM27.8456 6.81908L26.3496 10.5432H29.3713L27.8456 6.81908Z" fill="#131416"/>
<path d="M46.2308 10.5283V14.4616H44.1515V10.7078C44.1515 9.57123 43.5979 8.95798 42.625 8.95798C42.1911 8.95798 41.7123 9.15236 41.2784 9.75075C41.3139 10.0085 41.3339 10.2681 41.3383 10.5283V14.4616H39.2598V10.7078C39.2598 9.57123 38.7063 8.95798 37.7189 8.95798C37.3171 8.95798 36.866 9.19894 36.4474 9.76561V14.4616H34.3682V7.29774H36.4474V7.73148C36.8962 7.3126 37.375 7.07324 38.2126 7.07324C39.1253 7.07324 39.9327 7.43228 40.5023 8.09011C41.2656 7.3873 41.9835 7.07324 43.1054 7.07324C44.8545 7.07324 46.2308 8.43429 46.2308 10.5283Z" fill="#131416"/>
<path d="M55.3702 10.8869C55.3702 12.9656 53.7847 14.6106 51.8098 14.6106C51.002 14.6106 50.3287 14.4014 49.7756 14.0423V17.9158H47.6963V7.29735H49.7756V7.71622C50.3291 7.35719 51.0024 7.14795 51.8098 7.14795C53.7843 7.14835 55.3702 8.77847 55.3702 10.8869ZM53.3215 10.8869C53.3215 9.82506 52.5438 8.89775 51.4664 8.89775C50.853 8.89775 50.2395 9.10699 49.776 9.7351V12.0243C50.2395 12.6375 50.853 12.8467 51.4664 12.8467C52.5442 12.8455 53.3207 11.9339 53.3207 10.8869H53.3215Z" fill="#131416"/>
<path d="M58.6162 14.4609H56.5371V3.84277H58.6162V14.4609Z" fill="#131416"/>
<path d="M60.4863 4.77045C60.4863 4.06764 61.0399 3.54395 61.7428 3.54395C62.4309 3.54395 62.9844 4.06603 62.9844 4.77045C62.9844 5.4584 62.4309 5.96684 61.7428 5.96684C61.0399 5.96684 60.4863 5.4584 60.4863 4.77045ZM62.79 7.29776V14.4616H60.7109V7.29776H62.79Z" fill="#131416"/>
<path d="M70.345 14.3567C69.4773 14.6258 69.0884 14.6856 68.4168 14.6856C66.6814 14.6856 65.5446 13.4591 65.5446 11.6049V9.04746H64.0342V7.29766H65.545V4.74023H67.6094V7.29766H70.1971V9.04746H67.6094V11.59C67.6094 12.3977 68.1031 12.7716 68.8659 12.7716C69.2547 12.7716 69.6737 12.682 70.0774 12.5772L70.345 14.3567Z" fill="#131416"/>
<path d="M78.6913 14.4608H76.612V13.9524C76.0287 14.4158 75.3703 14.6853 74.5633 14.6853C72.6784 14.6853 71.4219 13.3243 71.4219 11.2456V7.29736H73.5011V11.0512C73.5011 12.1877 74.0696 12.801 75.0421 12.801C75.5643 12.801 76.134 12.4869 76.6128 11.9038V7.29736H78.6921L78.6913 14.4608Z" fill="#131416"/>
<path d="M87.5183 14.4608H85.439V14.042C84.8855 14.401 84.2122 14.6102 83.4044 14.6102C81.4295 14.6102 79.8291 12.9801 79.8291 10.8713C79.8291 8.79257 81.4299 7.14719 83.4044 7.14719C84.2122 7.14719 84.8855 7.35643 85.439 7.71546V3.84277H87.5183V14.4608ZM85.4386 12.0235V9.73433C84.9751 9.12108 84.3616 8.91185 83.7482 8.91185C82.6564 8.91185 81.8931 9.82429 81.8931 10.8709C81.8931 11.9327 82.6564 12.86 83.7482 12.86C84.3604 12.8608 84.9751 12.6516 85.4386 12.0235Z" fill="#131416"/>
<path d="M95.9552 11.4102H90.6746C90.8393 12.2476 91.3929 12.9058 92.5297 12.9058C93.113 12.9058 93.5169 12.7263 93.7413 12.3673H95.9106C95.5218 13.7432 94.1752 14.6853 92.4847 14.6853C90.1809 14.6853 88.625 13.0255 88.625 10.8866C88.625 8.6733 90.166 7.07129 92.4249 7.07129C94.4737 7.07129 96.0002 8.52189 96.0002 10.7355C96.0035 10.9613 95.9884 11.1869 95.9552 11.4102V11.4102ZM90.6895 10.1837H93.9358C93.8153 9.28655 93.2774 8.79298 92.4398 8.79298C91.4375 8.79298 90.8839 9.37611 90.6895 10.1837V10.1837Z" fill="#131416"/>
</g>
<defs>
<clipPath id="clip0_765_14732">
<rect width="96" height="20" fill="white"/>
</clipPath>
</defs>
</svg>
