<svg width="120" height="20" viewBox="0 0 120 20" fill="none" xmlns="http://www.w3.org/2000/svg">
<path d="M20.6356 0C23.2151 0 25.3455 0.264631 27.0269 0.793894C28.7084 1.32316 30.0267 2.0458 30.9821 2.96183C31.9374 3.87786 32.6062 4.92621 32.9883 6.10687C33.3896 7.26718 33.5902 8.48855 33.5902 9.77099C33.5902 11.0534 33.3705 12.285 32.931 13.4656C32.4916 14.626 31.7655 15.6641 30.7528 16.5802C29.7592 17.4962 28.4313 18.2188 26.769 18.7481C25.1258 19.2774 23.0813 19.542 20.6356 19.542H0V0H20.6356ZM7.16515 13.4351H20.349C21.419 13.4351 22.3266 13.3639 23.0718 13.2214C23.8169 13.0585 24.4093 12.8244 24.8487 12.5191C25.3073 12.2137 25.6321 11.8372 25.8232 11.3893C26.0334 10.9211 26.1385 10.3817 26.1385 9.77099C26.1385 9.16031 26.0334 8.63104 25.8232 8.18321C25.6321 7.71501 25.3073 7.32824 24.8487 7.0229C24.4093 6.71756 23.8169 6.49364 23.0718 6.35115C22.3266 6.1883 21.419 6.10687 20.349 6.10687H7.16515V13.4351Z" fill="black"/>
<path d="M62.6164 19.542H55.7379V4.58015H62.6164V19.542ZM56.0245 11.8168L56.0818 13.2824C56.0245 13.7099 55.8334 14.2087 55.5086 14.7786C55.2029 15.3486 54.773 15.9389 54.2189 16.5496C53.6648 17.1603 52.9865 17.7303 52.184 18.2595C51.3815 18.7684 50.4643 19.1858 49.4326 19.5115C48.4008 19.8372 47.2544 20 45.9933 20C44.7322 20 43.538 19.8575 42.4107 19.5725C41.2834 19.3079 40.2803 18.8601 39.4014 18.229C38.5224 17.598 37.8346 16.7532 37.3378 15.6947C36.841 14.6158 36.5926 13.2723 36.5926 11.6641V4.58015H43.4712V10.9008C43.4712 12.0204 43.6431 12.8855 43.9871 13.4962C44.3501 14.1069 44.9137 14.5344 45.678 14.7786C46.4423 15.0025 47.4263 15.1145 48.6301 15.1145C49.7574 15.1145 50.7987 14.9415 51.7541 14.5954C52.7285 14.229 53.5788 13.7913 54.3049 13.2824C55.05 12.7735 55.6232 12.285 56.0245 11.8168Z" fill="black"/>
<path d="M65.1972 4.58015H72.0758V19.542H65.1972V4.58015ZM82.3936 4.12214C83.5209 4.12214 84.61 4.25445 85.6609 4.51908C86.7118 4.76336 87.648 5.19084 88.4696 5.80153C89.3103 6.41221 89.9791 7.24682 90.4759 8.30534C90.9726 9.36387 91.221 10.6972 91.221 12.3053V19.542H84.3425V13.2214C84.3425 11.6947 83.9699 10.6158 83.2247 9.98473C82.4796 9.33333 81.1325 9.00763 79.1836 9.00763C78.1518 9.00763 77.1487 9.12977 76.1742 9.37405C75.2189 9.61832 74.3591 9.91349 73.5948 10.2595C72.8305 10.5852 72.2286 10.9109 71.7892 11.2366L71.7318 10.0763C71.8083 9.70992 72.0662 9.20102 72.5057 8.54962C72.9642 7.87786 73.6234 7.20611 74.4833 6.53435C75.3431 5.8626 76.4226 5.29262 77.7219 4.82443C79.0403 4.35624 80.5975 4.12214 82.3936 4.12214Z" fill="black"/>
<path d="M113.176 14.1679H119.94C119.768 15.3486 119.214 16.3766 118.278 17.2519C117.361 18.1272 116.014 18.8092 114.237 19.2977C112.479 19.7659 110.234 20 107.502 20C104.616 20 102.123 19.7557 100.021 19.2672C97.9385 18.7786 96.3335 17.9542 95.2062 16.7939C94.0789 15.6336 93.5152 14.0662 93.5152 12.0916C93.5152 10.1374 94.0598 8.58015 95.1489 7.41985C96.2571 6.23919 97.8525 5.3944 99.9352 4.8855C102.018 4.37659 104.54 4.12214 107.502 4.12214C110.406 4.12214 112.785 4.39695 114.638 4.94657C116.491 5.49618 117.858 6.39186 118.737 7.63359C119.615 8.85496 120.036 10.514 119.998 12.6107H100.508C100.604 13.1399 100.871 13.6285 101.311 14.0763C101.769 14.5242 102.467 14.8906 103.403 15.1756C104.358 15.4402 105.629 15.5725 107.215 15.5725C108.858 15.5725 110.205 15.4504 111.256 15.2061C112.326 14.9618 112.966 14.6158 113.176 14.1679ZM107.215 8.54962C105.19 8.54962 103.642 8.78372 102.572 9.25191C101.521 9.7201 100.9 10.1883 100.709 10.6565H113.32C113.186 10.1272 112.651 9.64886 111.715 9.22137C110.778 8.77354 109.279 8.54962 107.215 8.54962Z" fill="black"/>
</svg>
