<svg width="112" height="12" viewBox="0 0 112 12" fill="none" xmlns="http://www.w3.org/2000/svg">
<g clip-path="url(#clip0_752_14468)">
<path d="M0.127222 0.33343C0.391414 -0.126537 1.00424 -0.00396734 1.41142 0.183183C4.3652 1.40888 7.30809 2.66621 10.2469 3.92486C10.9959 4.1331 10.6554 5.00954 10.6554 5.55649C9.03488 5.57363 7.41295 5.55649 5.79102 5.56967C5.34299 5.55122 4.81052 5.64612 4.47279 5.28368C3.13956 4.05798 1.85265 2.77956 0.549386 1.52882C0.242977 1.22305 -0.206423 0.772309 0.13267 0.33343H0.127222ZM19.4337 0.831617C20.1473 0.553528 20.8296 0.172639 21.5868 0.013166C22.0607 -0.0843629 22.2677 0.392738 22.4992 0.686642C21.4969 2.1219 20.0561 3.19076 18.8359 4.44809C18.3061 4.90279 17.8404 5.65666 17.0315 5.56836C15.2815 5.56836 13.5316 5.55781 11.7789 5.56836C11.6673 5.06094 11.3895 4.25962 12.0377 3.98681C14.489 2.91663 16.9661 1.87808 19.4337 0.835572V0.831617ZM33.9303 1.04644C34.0665 0.724863 34.4437 0.846115 34.7174 0.813166C37.1224 0.827663 39.526 0.813166 41.9351 0.822392C43.4331 0.846115 44.8058 2.00855 44.9978 3.44908C45.2906 5.10839 43.8811 6.82964 42.138 6.90477C40.0843 6.94694 38.028 6.87709 35.9757 6.93112C35.5754 7.98549 36.0384 9.22569 35.7415 10.3301C35.2063 10.7255 34.5949 11.1275 33.8949 11.1565C33.8949 9.32849 33.9139 7.49916 33.9044 5.67116C33.8799 5.41943 33.9412 4.99505 34.313 5.06358C36.7956 5.03195 39.2809 5.07808 41.7635 5.04908C42.3736 5.08203 43.0286 4.63656 43.049 4.0158C43.1852 3.29224 42.5043 2.65303 41.7744 2.67808C39.1869 2.63195 36.5994 2.72157 34.0256 2.63985C33.8268 2.13639 33.8894 1.57363 33.9357 1.04644H33.9303ZM56.0694 11.1473C56.0571 7.70476 56.0163 4.25962 56.0912 0.818438C59.8048 0.831617 63.5226 0.790761 67.2363 0.838207C67.0361 1.48005 66.7828 2.21547 66.2231 2.62799C63.4845 2.72552 60.7309 2.64513 57.9868 2.6649C57.9718 3.45567 57.9732 4.26226 57.9773 5.06226C60.6573 5.05435 63.3383 5.05435 66.0202 5.06226C66.0583 5.67511 66.0597 6.29191 66.0392 6.9074C63.351 6.93376 60.6655 6.9074 57.9773 6.92058C57.9773 7.71135 57.9773 8.50213 57.9773 9.2929C60.5647 9.28368 63.1427 9.2929 65.7247 9.2929C66.6779 9.23755 66.8386 10.3921 67.3003 10.9746C67.0542 11.1177 66.7701 11.1878 66.4832 11.1763C63.0119 11.1618 59.5379 11.1947 56.068 11.1591L56.0694 11.1473ZM78.2534 0.89488C78.5258 0.620745 78.7872 1.01877 79.031 1.1242C81.9249 3.28302 84.8351 5.41811 87.7221 7.5822C87.7643 5.6593 87.6676 3.73244 87.7643 1.81481C88.1974 1.27181 88.9069 1.00954 89.5524 0.769674C89.6981 1.16506 89.6682 1.58944 89.6722 2.00196C89.645 4.95419 89.6913 7.91037 89.6505 10.8626C89.7553 11.3278 89.1752 11.1868 88.9695 10.972C86.0212 8.78549 83.0851 6.58187 80.1286 4.40592C80.0919 6.342 80.194 8.28467 80.085 10.2168C79.6574 10.744 78.9098 11.0721 78.2153 11.1842C78.1853 8.12124 78.2153 5.05831 78.1962 1.99406C78.1839 1.62589 78.203 1.25736 78.2534 0.892243V0.89488ZM100.791 4.77363C101.328 2.49751 103.628 0.761765 106.041 0.826345C107.948 0.863248 109.848 0.755176 111.745 0.879064C111.726 1.54727 111.288 2.12717 110.872 2.63063C109.142 2.78088 107.392 2.57923 105.661 2.72025C104.242 2.88895 102.977 3.94463 102.665 5.30213C102.159 7.14727 103.726 9.17429 105.682 9.28236C107.153 9.30872 108.625 9.28236 110.097 9.28236C110.097 8.49158 110.097 7.70872 110.097 6.9219C108.998 6.90608 107.896 6.94826 106.797 6.91135C106.325 6.96144 106.167 6.4303 105.947 6.12981C105.811 5.80427 105.452 5.47083 105.634 5.09916C107.421 5.00559 109.216 5.09916 111.006 5.05567C111.331 5.09784 111.753 4.95419 111.994 5.2415C112.044 7.19999 111.994 9.16243 112.012 11.1222C110.662 11.2132 109.308 11.1525 107.959 11.167C106.553 11.1473 105.064 11.3291 103.766 10.6794C101.497 9.72256 100.136 7.09455 100.798 4.77099L100.791 4.77363ZM4.43193 6.72552C4.78056 6.35386 5.32937 6.45139 5.79375 6.43294C7.42793 6.45798 9.05394 6.41185 10.6827 6.46325C10.6977 6.96539 10.9796 7.75617 10.3518 8.01053C7.80243 9.11893 5.23949 10.1957 2.67791 11.2804C2.00926 11.544 1.35967 11.9077 0.635181 12C0.270214 11.8932 -0.0552604 11.5572 0.0182778 11.1631C0.245702 10.6649 0.688293 10.3064 1.07369 9.92289C2.20536 8.86852 3.27847 7.75221 4.43874 6.72552H4.43193ZM11.7354 6.46193C13.4336 6.4303 15.1399 6.46193 16.8327 6.44084C17.1867 6.4672 17.613 6.39472 17.8867 6.66753C19.1328 7.79439 20.3216 8.97791 21.5377 10.1338C21.851 10.4606 22.2186 10.7637 22.3889 11.1881C22.4869 11.7601 21.7624 12.2056 21.2518 11.8998C18.1781 10.6741 15.1481 9.34035 12.1085 8.03953C11.4099 7.80757 11.6646 6.99175 11.7354 6.46457" fill="#131416"/>
</g>
<defs>
<clipPath id="clip0_752_14468">
<rect width="112" height="12" fill="white"/>
</clipPath>
</defs>
</svg>
